<svg width="193" height="193" viewBox="0 0 193 193" fill="none" xmlns="http://www.w3.org/2000/svg">
<mask id="path-1-inside-1_1_4" fill="white">
<path d="M0 20C0 8.95431 8.95431 0 20 0H173C184.046 0 193 8.95431 193 20V173C193 184.046 184.046 193 173 193H20C8.95431 193 0 184.046 0 173V20Z"/>
</mask>
<path d="M0 20C0 8.95431 8.95431 0 20 0H173C184.046 0 193 8.95431 193 20V173C193 184.046 184.046 193 173 193H20C8.95431 193 0 184.046 0 173V20Z" fill="white"/>
<path d="M34.1648 96V45.0909H40.3295V90.5312H63.9943V96H34.1648ZM73.5398 96V45.0909H104.264V50.5597H79.7045V67.7614H102.673V73.2301H79.7045V90.5312H104.662V96H73.5398ZM150.177 61C149.63 59.3262 148.909 57.8265 148.014 56.5007C147.136 55.1584 146.084 54.0149 144.857 53.0703C143.647 52.1257 142.272 51.4048 140.731 50.9077C139.19 50.4105 137.499 50.1619 135.66 50.1619C132.644 50.1619 129.901 50.9408 127.432 52.4986C124.963 54.0563 122.999 56.3516 121.54 59.3842C120.082 62.4169 119.353 66.1373 119.353 70.5455C119.353 74.9536 120.09 78.674 121.565 81.7067C123.04 84.7393 125.037 87.0346 127.556 88.5923C130.075 90.1501 132.909 90.929 136.058 90.929C138.974 90.929 141.543 90.3075 143.763 89.0646C146.001 87.8052 147.741 86.032 148.984 83.745C150.243 81.4415 150.873 78.732 150.873 75.6165L152.762 76.0142H137.45V70.5455H156.839V76.0142C156.839 80.2069 155.944 83.8527 154.154 86.9517C152.381 90.0507 149.928 92.4536 146.796 94.1605C143.681 95.8509 140.101 96.696 136.058 96.696C131.55 96.696 127.589 95.6354 124.175 93.5142C120.778 91.393 118.127 88.3769 116.221 84.4659C114.332 80.5549 113.387 75.9148 113.387 70.5455C113.387 66.5185 113.926 62.8975 115.003 59.6825C116.097 56.451 117.638 53.7 119.626 51.4297C121.615 49.1593 123.968 47.4193 126.686 46.2095C129.404 44.9998 132.395 44.3949 135.66 44.3949C138.344 44.3949 140.847 44.8009 143.167 45.6129C145.504 46.4084 147.583 47.5436 149.406 49.0185C151.246 50.4768 152.779 52.2251 154.005 54.2635C155.231 56.2853 156.076 58.5308 156.54 61H150.177Z" fill="black"/>
<path d="M96.4205 174.795C91.9886 174.795 88.0587 174.038 84.6307 172.523C81.2216 170.989 78.5322 168.877 76.5625 166.188C74.5928 163.498 73.589 160.402 73.5511 156.898H87.6989C87.7557 158.167 88.1629 159.294 88.9205 160.278C89.678 161.244 90.7102 162.002 92.017 162.551C93.3239 163.1 94.8106 163.375 96.4773 163.375C98.1439 163.375 99.6117 163.081 100.881 162.494C102.169 161.888 103.172 161.064 103.892 160.023C104.612 158.962 104.962 157.75 104.943 156.386C104.962 155.023 104.574 153.811 103.778 152.75C102.983 151.689 101.856 150.866 100.398 150.278C98.9583 149.691 97.2538 149.398 95.2841 149.398H89.6307V139.398H95.2841C97.0076 139.398 98.5227 139.114 99.8295 138.545C101.155 137.977 102.188 137.182 102.926 136.159C103.665 135.117 104.025 133.924 104.006 132.58C104.025 131.273 103.712 130.127 103.068 129.142C102.443 128.138 101.563 127.362 100.426 126.812C99.3087 126.263 98.0114 125.989 96.5341 125.989C94.9811 125.989 93.5701 126.263 92.3011 126.812C91.0511 127.362 90.0568 128.138 89.3182 129.142C88.5795 130.146 88.1913 131.311 88.1534 132.636H74.7159C74.7538 129.17 75.7197 126.121 77.6136 123.489C79.5076 120.837 82.0833 118.763 85.3409 117.267C88.6174 115.771 92.3485 115.023 96.5341 115.023C100.701 115.023 104.366 115.752 107.528 117.21C110.691 118.669 113.153 120.657 114.915 123.176C116.676 125.676 117.557 128.508 117.557 131.67C117.576 134.947 116.506 137.646 114.347 139.767C112.206 141.888 109.451 143.195 106.08 143.688V144.142C110.587 144.672 113.987 146.131 116.278 148.517C118.589 150.903 119.735 153.886 119.716 157.466C119.716 160.837 118.722 163.83 116.733 166.443C114.763 169.038 112.017 171.083 108.494 172.58C104.991 174.057 100.966 174.795 96.4205 174.795Z" fill="black"/>
<path d="M0 20C0 -2.09139 17.9086 -20 40 -20H153C175.091 -20 193 -2.09139 193 20C193 20 184.046 20 173 20H20C8.9543 20 0 20 0 20ZM193 193H0H193ZM0 193V0V193ZM193 0V193V0Z" fill="#0BBCF4" mask="url(#path-1-inside-1_1_4)"/>
</svg>
